<svg xmlns="http://www.w3.org/2000/svg" xmlns:xlink="http://www.w3.org/1999/xlink" version="1.1" width="256" height="256" viewBox="0 0 256 256" xml:space="preserve">
<desc>Created with Fabric.js 1.7.22</desc>
<defs>
</defs>
<g transform="translate(128 128) scale(0.72 0.72)" style="">
	<g style="stroke: none; stroke-width: 0; stroke-dasharray: none; stroke-linecap: butt; stroke-linejoin: miter; stroke-miterlimit: 10; fill: none; fill-rule: nonzero; opacity: 1;" transform="translate(-175.05 -175.05) scale(3.89 3.89)" >
	<circle cx="45" cy="45" r="45" style="stroke: none; stroke-width: 1; stroke-dasharray: none; stroke-linecap: butt; stroke-linejoin: miter; stroke-miterlimit: 10; fill: rgb(255,200,67); fill-rule: nonzero; opacity: 1;" transform="  matrix(1 0 0 1 0 0) "/>
	<circle cx="45" cy="45" r="37.5" style="stroke: none; stroke-width: 1; stroke-dasharray: none; stroke-linecap: butt; stroke-linejoin: miter; stroke-miterlimit: 10; fill: rgb(211,135,0); fill-rule: nonzero; opacity: 1;" transform="  matrix(1 0 0 1 0 0) "/>
	<path d="M 32.028 54.529 l 12.106 12.106 c 0.478 0.478 1.252 0.478 1.73 0 L 57.96 54.539 c 0.477 -0.477 0.478 -1.25 0.002 -1.728 l -3.343 -3.357 c -0.477 -0.479 -1.252 -0.48 -1.731 -0.002 L 45.86 56.47 c -0.475 0.474 -1.244 0.477 -1.722 0.006 l -7.14 -7.027 c -0.484 -0.476 -1.262 -0.467 -1.735 0.02 l -3.247 3.342 C 31.55 53.291 31.555 54.056 32.028 54.529 z" style="stroke: none; stroke-width: 1; stroke-dasharray: none; stroke-linecap: butt; stroke-linejoin: miter; stroke-miterlimit: 10; fill: rgb(255,200,67); fill-rule: nonzero; opacity: 1;" transform=" matrix(1 0 0 1 0 0) " stroke-linecap="round" />
	<path d="M 32.028 35.471 l 12.106 -12.106 c 0.478 -0.478 1.252 -0.478 1.73 0 L 57.96 35.461 c 0.477 0.477 0.478 1.25 0.002 1.728 l -3.343 3.357 c -0.477 0.479 -1.252 0.48 -1.731 0.002 L 45.86 33.53 c -0.475 -0.474 -1.244 -0.477 -1.722 -0.006 l -7.14 7.027 c -0.484 0.476 -1.262 0.467 -1.735 -0.02 l -3.247 -3.342 C 31.55 36.709 31.555 35.944 32.028 35.471 z" style="stroke: none; stroke-width: 1; stroke-dasharray: none; stroke-linecap: butt; stroke-linejoin: miter; stroke-miterlimit: 10; fill: rgb(255,200,67); fill-rule: nonzero; opacity: 1;" transform=" matrix(1 0 0 1 0 0) " stroke-linecap="round" />
	<path d="M 23.365 45.864 l 3.355 3.355 c 0.478 0.478 1.252 0.478 1.73 0 l 3.352 -3.352 c 0.478 -0.478 0.478 -1.252 0 -1.73 l -3.355 -3.355 c -0.478 -0.478 -1.252 -0.478 -1.73 0 l -3.353 3.353 C 22.887 44.612 22.887 45.386 23.365 45.864 z" style="stroke: none; stroke-width: 1; stroke-dasharray: none; stroke-linecap: butt; stroke-linejoin: miter; stroke-miterlimit: 10; fill: rgb(255,200,67); fill-rule: nonzero; opacity: 1;" transform=" matrix(1 0 0 1 0 0) " stroke-linecap="round" />
	<path d="M 40.781 45.865 l 3.355 3.355 c 0.478 0.478 1.252 0.478 1.73 0 l 3.352 -3.352 c 0.478 -0.478 0.478 -1.252 0 -1.73 l -3.355 -3.355 c -0.478 -0.478 -1.252 -0.478 -1.73 0 l -3.353 3.353 C 40.303 44.613 40.303 45.388 40.781 45.865 z" style="stroke: none; stroke-width: 1; stroke-dasharray: none; stroke-linecap: butt; stroke-linejoin: miter; stroke-miterlimit: 10; fill: rgb(255,200,67); fill-rule: nonzero; opacity: 1;" transform=" matrix(1 0 0 1 0 0) " stroke-linecap="round" />
	<path d="M 58.196 45.865 l 3.355 3.355 c 0.478 0.478 1.252 0.478 1.73 0 l 3.352 -3.352 c 0.478 -0.478 0.478 -1.252 0 -1.73 l -3.355 -3.355 c -0.478 -0.478 -1.252 -0.478 -1.73 0 l -3.353 3.353 C 57.719 44.613 57.719 45.388 58.196 45.865 z" style="stroke: none; stroke-width: 1; stroke-dasharray: none; stroke-linecap: butt; stroke-linejoin: miter; stroke-miterlimit: 10; fill: rgb(255,200,67); fill-rule: nonzero; opacity: 1;" transform=" matrix(1 0 0 1 0 0) " stroke-linecap="round" />
</g>
</g>
</svg>